<svg xmlns="http://www.w3.org/2000/svg" viewBox="0 0 62 16"><defs><linearGradient id="a" x1="77.343%" x2="21.811%" y1="50%" y2="50%"><stop offset="0%" stop-color="#6339F5"/><stop offset="100%" stop-color="#3D3F55"/></linearGradient></defs><path fill="url(#a)" d="M.544.997h12.912c.3 0 .544.243.544.544V4.08c0 .338-.147.658-.402.88L6.378 11h7.078c.3 0 .544.24.544.54v2.915c0 .3-.244.544-.544.544H.544A.544.544 0 0 1 0 14.455V11.92c0-.338.147-.658.402-.88L7.622 5H.544A.55.55 0 0 1 0 4.45V1.541c0-.3.244-.544.544-.544zM23 .5c1.493 0 2.824.336 3.935.95a6.614 6.614 0 0 1 2.616 2.615c.613 1.111.949 2.442.949 3.935 0 1.493-.336 2.824-.95 3.935a6.614 6.614 0 0 1-2.615 2.616c-1.111.613-2.442.949-3.935.949-1.493 0-2.824-.336-3.935-.95a6.614 6.614 0 0 1-2.616-2.615C15.836 10.824 15.5 9.493 15.5 8c0-1.493.336-2.824.95-3.935a6.614 6.614 0 0 1 2.615-2.616C20.176.836 21.507.5 23 .5zm0 4c-.714 0-1.341.15-1.86.431-.518.28-.928.69-1.209 1.21-.28.518-.431 1.145-.431 1.859s.15 1.341.431 1.86c.28.518.69.928 1.21 1.209.518.28 1.145.431 1.859.431s1.341-.15 1.86-.431c.518-.28.928-.69 1.209-1.21.28-.518.431-1.145.431-1.859s-.15-1.341-.431-1.86a2.958 2.958 0 0 0-1.21-1.209C24.342 4.651 23.715 4.5 23 4.5zm16-4c1.493 0 2.824.336 3.935.95a6.614 6.614 0 0 1 2.616 2.615c.613 1.111.949 2.442.949 3.935 0 1.493-.336 2.824-.95 3.935a6.614 6.614 0 0 1-2.615 2.616c-1.111.613-2.442.949-3.935.949-1.493 0-2.824-.336-3.935-.95a6.614 6.614 0 0 1-2.616-2.615C31.836 10.824 31.5 9.493 31.5 8c0-1.493.336-2.824.95-3.935a6.614 6.614 0 0 1 2.615-2.616C36.176.836 37.507.5 39 .5zm0 4c-.714 0-1.341.15-1.86.431-.518.28-.928.69-1.209 1.21-.28.518-.431 1.145-.431 1.859s.15 1.341.431 1.86c.28.518.69.928 1.21 1.209.518.28 1.145.431 1.859.431s1.341-.15 1.86-.431c.518-.28.928-.69 1.209-1.21.28-.518.431-1.145.431-1.859s-.15-1.341-.431-1.86a2.958 2.958 0 0 0-1.21-1.209C40.342 4.651 39.715 4.5 39 4.5zm23.002-2.957v12.912c0 .3-.244.544-.545.544H58.92c-.338 0-.658-.147-.88-.402L52 7.377v7.078c0 .3-.25.544-.55.544h-2.907a.544.544 0 0 1-.545-.544V1.543c0-.3.244-.545.545-.545h2.537c.338 0 .658.147.88.403L58 8.622v-7.08c0-.3.24-.544.54-.544h2.917c.3 0 .545.244.545.545z"/></svg>