<svg width="223" height="35" viewBox="0 0 223 35" fill="none" xmlns="http://www.w3.org/2000/svg">
<path d="M25.6514 5.20886H31.9912C33.4209 5.20886 34.5107 5.31824 35.2607 5.53699C36.2686 5.83386 37.1318 6.36121 37.8506 7.11902C38.5693 7.87683 39.1162 8.80652 39.4912 9.90808C39.8662 11.0018 40.0537 12.3534 40.0537 13.9628C40.0537 15.3768 39.8779 16.5956 39.5264 17.619C39.0967 18.869 38.4834 19.8807 37.6865 20.6542C37.085 21.2401 36.2725 21.6971 35.249 22.0253C34.4834 22.2675 33.46 22.3885 32.1787 22.3885H25.6514V5.20886ZM29.1201 8.11511V19.494H31.71C32.6787 19.494 33.3779 19.4393 33.8076 19.33C34.3701 19.1893 34.835 18.951 35.2021 18.6151C35.5771 18.2792 35.8818 17.7284 36.1162 16.9628C36.3506 16.1893 36.4678 15.1385 36.4678 13.8104C36.4678 12.4823 36.3506 11.4628 36.1162 10.7518C35.8818 10.0409 35.5537 9.48621 35.1318 9.08777C34.71 8.68933 34.1748 8.4198 33.5264 8.27917C33.042 8.1698 32.0928 8.11511 30.6787 8.11511H29.1201ZM43.0068 22.3885V5.20886H55.7451V8.11511H46.4756V11.9237H55.1006V14.8182H46.4756V19.494H56.0732V22.3885H43.0068ZM59.0498 22.3885V5.20886H62.4248L69.4561 16.6815V5.20886H72.6787V22.3885H69.1982L62.2725 11.1854V22.3885H59.0498ZM80.2256 22.3885V8.11511H75.1279V5.20886H88.7803V8.11511H83.6943V22.3885H80.2256ZM90.9248 22.3885V5.20886H94.3936V22.3885H90.9248ZM96.8311 16.7987L100.206 16.4706C100.409 17.6034 100.819 18.4354 101.437 18.9667C102.062 19.4979 102.901 19.7635 103.956 19.7635C105.073 19.7635 105.913 19.5292 106.476 19.0604C107.046 18.5839 107.331 18.0292 107.331 17.3964C107.331 16.9901 107.21 16.6464 106.968 16.3651C106.733 16.076 106.319 15.826 105.726 15.6151C105.319 15.4745 104.394 15.2245 102.948 14.8651C101.089 14.4042 99.7842 13.8378 99.0342 13.1659C97.9795 12.2206 97.4521 11.0682 97.4521 9.70886C97.4521 8.83386 97.6982 8.01746 98.1904 7.25964C98.6904 6.49402 99.4053 5.91199 100.335 5.51355C101.272 5.11511 102.401 4.91589 103.722 4.91589C105.878 4.91589 107.499 5.38855 108.585 6.33386C109.679 7.27917 110.253 8.54089 110.308 10.119L106.839 10.2714C106.69 9.38855 106.37 8.75574 105.878 8.37292C105.394 7.9823 104.663 7.78699 103.687 7.78699C102.679 7.78699 101.89 7.99402 101.319 8.40808C100.952 8.67371 100.769 9.02917 100.769 9.47449C100.769 9.88074 100.94 10.2284 101.284 10.5175C101.722 10.8846 102.784 11.2675 104.472 11.6659C106.159 12.0643 107.405 12.4784 108.21 12.9081C109.022 13.33 109.655 13.912 110.108 14.6542C110.569 15.3885 110.8 16.2987 110.8 17.3846C110.8 18.369 110.526 19.2909 109.979 20.1503C109.433 21.0096 108.659 21.6503 107.659 22.0721C106.659 22.4862 105.413 22.6932 103.921 22.6932C101.749 22.6932 100.081 22.1932 98.917 21.1932C97.7529 20.1854 97.0576 18.7206 96.8311 16.7987ZM117.585 22.3885V8.11511H112.487V5.20886H126.14V8.11511H121.054V22.3885H117.585ZM127.511 16.7987L130.886 16.4706C131.089 17.6034 131.499 18.4354 132.116 18.9667C132.741 19.4979 133.581 19.7635 134.636 19.7635C135.753 19.7635 136.593 19.5292 137.155 19.0604C137.726 18.5839 138.011 18.0292 138.011 17.3964C138.011 16.9901 137.89 16.6464 137.647 16.3651C137.413 16.076 136.999 15.826 136.405 15.6151C135.999 15.4745 135.073 15.2245 133.628 14.8651C131.769 14.4042 130.464 13.8378 129.714 13.1659C128.659 12.2206 128.132 11.0682 128.132 9.70886C128.132 8.83386 128.378 8.01746 128.87 7.25964C129.37 6.49402 130.085 5.91199 131.015 5.51355C131.952 5.11511 133.081 4.91589 134.401 4.91589C136.558 4.91589 138.179 5.38855 139.265 6.33386C140.358 7.27917 140.933 8.54089 140.987 10.119L137.519 10.2714C137.37 9.38855 137.05 8.75574 136.558 8.37292C136.073 7.9823 135.343 7.78699 134.366 7.78699C133.358 7.78699 132.569 7.99402 131.999 8.40808C131.632 8.67371 131.448 9.02917 131.448 9.47449C131.448 9.88074 131.62 10.2284 131.964 10.5175C132.401 10.8846 133.464 11.2675 135.151 11.6659C136.839 12.0643 138.085 12.4784 138.89 12.9081C139.702 13.33 140.335 13.912 140.788 14.6542C141.249 15.3885 141.479 16.2987 141.479 17.3846C141.479 18.369 141.206 19.2909 140.659 20.1503C140.112 21.0096 139.339 21.6503 138.339 22.0721C137.339 22.4862 136.093 22.6932 134.601 22.6932C132.429 22.6932 130.761 22.1932 129.597 21.1932C128.433 20.1854 127.737 18.7206 127.511 16.7987ZM144.374 22.3885V19.0956H147.667V22.3885H144.374ZM149.894 18.8378L153.198 18.3339C153.339 18.9745 153.624 19.4628 154.054 19.7987C154.483 20.1268 155.085 20.2909 155.858 20.2909C156.71 20.2909 157.351 20.1346 157.78 19.8221C158.069 19.6034 158.214 19.3104 158.214 18.9432C158.214 18.6932 158.136 18.4862 157.979 18.3221C157.815 18.1659 157.448 18.0214 156.878 17.8885C154.222 17.3026 152.538 16.7675 151.827 16.2831C150.843 15.6112 150.351 14.6776 150.351 13.4823C150.351 12.4042 150.776 11.4979 151.628 10.7635C152.479 10.0292 153.8 9.66199 155.589 9.66199C157.292 9.66199 158.558 9.93933 159.386 10.494C160.214 11.0487 160.784 11.869 161.097 12.955L157.991 13.5292C157.858 13.0448 157.604 12.6737 157.229 12.4159C156.862 12.1581 156.335 12.0292 155.647 12.0292C154.78 12.0292 154.159 12.1503 153.784 12.3925C153.534 12.5643 153.409 12.787 153.409 13.0604C153.409 13.2948 153.519 13.494 153.737 13.6581C154.034 13.8768 155.058 14.1854 156.808 14.5839C158.565 14.9823 159.792 15.4706 160.487 16.0487C161.175 16.6346 161.519 17.451 161.519 18.4979C161.519 19.6385 161.042 20.619 160.089 21.4393C159.136 22.2596 157.726 22.6698 155.858 22.6698C154.163 22.6698 152.819 22.326 151.827 21.6385C150.843 20.951 150.198 20.0175 149.894 18.8378ZM164.319 9.94324H167.39V11.7714C167.788 11.1464 168.327 10.6385 169.007 10.2479C169.687 9.8573 170.44 9.66199 171.269 9.66199C172.714 9.66199 173.94 10.2284 174.948 11.3612C175.956 12.494 176.46 14.0721 176.46 16.0956C176.46 18.1737 175.952 19.7909 174.937 20.9471C173.921 22.0956 172.69 22.6698 171.245 22.6698C170.558 22.6698 169.933 22.5331 169.37 22.2596C168.815 21.9862 168.229 21.5175 167.612 20.8534V27.1229H164.319V9.94324ZM167.577 15.955C167.577 17.3534 167.854 18.3885 168.409 19.0604C168.964 19.7245 169.64 20.0565 170.437 20.0565C171.202 20.0565 171.839 19.7518 172.347 19.1425C172.854 18.5253 173.108 17.5175 173.108 16.119C173.108 14.8143 172.847 13.8456 172.323 13.2128C171.8 12.58 171.151 12.2635 170.378 12.2635C169.573 12.2635 168.905 12.576 168.374 13.201C167.843 13.8182 167.577 14.7362 167.577 15.955ZM178.944 22.3885V5.20886H182.237V11.3964C183.253 10.2401 184.456 9.66199 185.847 9.66199C187.362 9.66199 188.616 10.2128 189.608 11.3143C190.601 12.4081 191.097 13.9823 191.097 16.037C191.097 18.162 190.589 19.7987 189.573 20.9471C188.565 22.0956 187.339 22.6698 185.894 22.6698C185.183 22.6698 184.479 22.494 183.784 22.1425C183.097 21.7831 182.503 21.2557 182.003 20.5604V22.3885H178.944ZM182.214 15.8964C182.214 17.1854 182.417 18.1385 182.823 18.7557C183.394 19.6307 184.151 20.0682 185.097 20.0682C185.823 20.0682 186.44 19.7596 186.948 19.1425C187.464 18.5175 187.722 17.537 187.722 16.201C187.722 14.7792 187.464 13.7557 186.948 13.1307C186.433 12.4979 185.772 12.1815 184.968 12.1815C184.179 12.1815 183.522 12.4901 182.999 13.1073C182.476 13.7167 182.214 14.6464 182.214 15.8964ZM193.757 22.3885V19.0956H197.05V22.3885H193.757ZM203.589 22.3885H200.296V9.94324H203.354V11.7128C203.878 10.8768 204.347 10.326 204.761 10.0604C205.183 9.7948 205.659 9.66199 206.19 9.66199C206.94 9.66199 207.663 9.86902 208.358 10.2831L207.339 13.1542C206.784 12.7948 206.269 12.6151 205.792 12.6151C205.331 12.6151 204.94 12.744 204.62 13.0018C204.3 13.2518 204.046 13.7089 203.858 14.3729C203.679 15.037 203.589 16.4276 203.589 18.5448V22.3885ZM217.979 22.3885V20.5253C217.526 21.1893 216.929 21.7128 216.187 22.0956C215.452 22.4784 214.675 22.6698 213.854 22.6698C213.019 22.6698 212.269 22.4862 211.604 22.119C210.94 21.7518 210.46 21.2362 210.163 20.5721C209.866 19.9081 209.718 18.9901 209.718 17.8182V9.94324H213.011V15.662C213.011 17.412 213.069 18.4862 213.187 18.8846C213.312 19.2753 213.534 19.5878 213.854 19.8221C214.175 20.0487 214.581 20.162 215.073 20.162C215.636 20.162 216.14 20.0096 216.585 19.705C217.03 19.3925 217.335 19.0096 217.499 18.5565C217.663 18.0956 217.745 16.9745 217.745 15.1932V9.94324H221.038V22.3885H217.979Z" fill="#05A59B"/>
<path d="M24.2743 22.8071L32.4023 30.9671L29.0423 34.3271L20.9143 26.1991C18.653 27.7351 16.1783 28.5031 13.4903 28.5031C9.88501 28.5031 6.80234 27.2231 4.24234 24.6631C1.68234 22.1031 0.402344 19.0205 0.402344 15.4151C0.402344 11.8098 1.68234 8.72715 4.24234 6.16715C6.80234 3.60715 9.88501 2.32715 13.4903 2.32715C17.0957 2.32715 20.1783 3.60715 22.7383 6.16715C25.2983 8.72715 26.5783 11.8098 26.5783 15.4151C26.5783 18.1245 25.8103 20.5885 24.2743 22.8071ZM22.1943 15.4151C22.1943 13.0045 21.3463 10.9458 19.6503 9.23915C17.9543 7.53248 15.901 6.67915 13.4903 6.67915C11.0797 6.67915 9.02101 7.53248 7.31434 9.23915C5.60768 10.9458 4.75434 13.0045 4.75434 15.4151C4.75434 17.8258 5.60768 19.8791 7.31434 21.5751C9.02101 23.2711 11.0797 24.1191 13.4903 24.1191C15.901 24.1191 17.9543 23.2711 19.6503 21.5751C21.3463 19.8791 22.1943 17.8258 22.1943 15.4151Z" fill="#05A59B"/>
<g clip-path="url(#clip0)">
<path d="M17.9104 12.4438C17.6647 11.2957 16.8589 10.3603 15.8566 10.0642C15.1381 9.85195 14.4504 10.1937 13.8669 10.682C13.7943 10.7427 13.7115 10.7767 13.6325 10.8211L14.2647 11.2835C14.4303 11.4046 14.4785 11.656 14.3718 11.8449C14.2722 12.0213 14.0533 12.0952 13.8783 11.9667L11.6347 10.326C11.1727 10.0505 10.6664 9.90958 10.1434 10.0642C9.14122 10.3605 8.33541 11.2957 8.08965 12.4438C7.86354 13.5006 8.08028 14.4956 8.56956 15.2477C9.09099 16.0493 9.29903 16.991 9.37961 17.9734C9.47782 19.1708 9.61019 20.3642 9.84702 21.5362L10.0211 22.3982C10.0923 22.7504 10.3669 23 10.6834 23C10.9952 23 11.2671 22.7575 11.3428 22.4119L12.1122 18.8974C12.214 18.4322 12.5801 18.1062 12.9997 18.1062C13.4193 18.1062 13.7854 18.4325 13.8872 18.8974L14.6566 22.4119C14.7323 22.7575 15.0042 23 15.316 23C15.6325 23 15.9071 22.7504 15.9783 22.3982L16.1524 21.5362C16.3892 20.3644 16.5214 19.1708 16.6198 17.9734C16.7004 16.9908 16.9084 16.0493 17.4298 15.2477C17.9198 14.4959 18.1365 13.5008 17.9104 12.4438V12.4438Z" fill="#05A59B"/>
</g>
<defs>
<clipPath id="clip0">
<rect width="10" height="13" fill="white" transform="translate(8 10)"/>
</clipPath>
</defs>
</svg>
