<svg xmlns="http://www.w3.org/2000/svg" viewBox="0 0 250 46"><g fill="none" fill-rule="evenodd"><path fill="#FF9F00" d="M41.215 20.646c0 11.402-9.227 20.644-20.608 20.644C9.225 41.29 0 32.048 0 20.646 0 9.242 9.225 0 20.607 0c11.381 0 20.608 9.242 20.608 20.646"/><path fill="#000" d="M63.323 31.271c-4.308 0-7.404-1.404-9.491-3.46l2.591-3.528a9.99 9.99 0 0 0 7.136 2.94c2.625 0 3.904-1.176 3.904-2.417 0-3.853-12.924-1.208-12.924-9.405 0-3.624 3.23-6.629 8.515-6.629 3.568 0 6.53 1.045 8.751 3.037l-2.659 3.396c-1.817-1.632-4.24-2.383-6.53-2.383-2.053 0-3.197.881-3.197 2.187 0 3.462 12.891 1.143 12.891 9.274 0 3.984-2.928 6.988-8.987 6.988zm22.215-.391h-4.814v-17.7h-6.563V9.1h17.906v4.082h-6.53V30.88zm29.56 0h-5.453l-1.38-3.69h-9.626l-1.414 3.69h-5.452l8.683-21.781h5.991l8.65 21.78zm-8.146-7.772l-3.5-9.372-3.5 9.372h7zm28.408 7.772h-5.487l-4.409-7.74h-3.5v7.74h-4.78V9.099h10.502c4.678 0 7.539 2.972 7.539 7.02 0 3.854-2.49 5.911-4.914 6.466l5.049 8.295zm-8.381-11.821c1.918 0 3.366-1.11 3.366-2.94 0-1.828-1.448-2.938-3.366-2.938h-5.015v5.878h5.015zm21.844 11.82h-4.813V13.182h-6.564V9.099h17.906v4.082h-6.53V30.88zm17.57.392c-4.309 0-7.406-1.404-9.492-3.46l2.591-3.528a9.99 9.99 0 0 0 7.136 2.94c2.625 0 3.904-1.176 3.904-2.417 0-3.853-12.925-1.208-12.925-9.405 0-3.624 3.232-6.629 8.516-6.629 3.568 0 6.53 1.045 8.751 3.037l-2.659 3.396c-1.818-1.632-4.24-2.383-6.53-2.383-2.053 0-3.197.881-3.197 2.187 0 3.462 12.89 1.143 12.89 9.274 0 3.984-2.927 6.988-8.986 6.988zm36.552-.391h-4.813V15.63l-6.328 15.25h-2.087l-6.328-15.25v15.25h-4.779V9.099h6.698l5.452 13.16 5.453-13.16h6.732v21.78zm8.616 0h-4.274V9.099h4.274v21.78zm18.613 0h-14.271V9.099h4.78v17.699h9.49v4.082zm19.219 0h-15.887V9.099h15.887v4.082h-11.108v4.604h10.872v4.082h-10.872v4.93h11.108v4.083z"/><path fill="#000" d="M55.817 43.3c-.893 0-1.434-.38-1.757-.817l.617-.58c.257.352.646.58 1.093.58.712 0 1.206-.437 1.348-1.178h-2.07v-.864h2.06c-.142-.713-.645-1.14-1.338-1.14-.447 0-.836.218-1.093.58l-.617-.58c.323-.437.864-.817 1.757-.817 1.396 0 2.375 1.016 2.375 2.403 0 1.396-.979 2.413-2.375 2.413zm8.882-.114h-1.254l-1.406-1.89-.636.655v1.235h-.997v-4.588h.997v2.213l2.023-2.213h1.235l-1.91 2.08 1.948 2.508zm4 .114c-1.397 0-2.375-1.017-2.375-2.413 0-1.387.978-2.403 2.375-2.403.893 0 1.434.38 1.757.817l-.655.608a1.225 1.225 0 0 0-1.055-.542c-.836 0-1.387.627-1.387 1.52s.551 1.53 1.387 1.53c.447 0 .798-.19 1.055-.542l.655.608c-.323.437-.864.817-1.757.817zm7.941-.114h-.997v-3.714h-2.109v3.714h-.997v-4.588h4.103v4.588zm4.617.114c-1.377 0-2.403-.96-2.403-2.413 0-1.33.969-2.403 2.327-2.403 1.378 0 2.261 1.054 2.261 2.498v.238h-3.543c.076.693.598 1.263 1.463 1.263.446 0 .978-.18 1.301-.504l.456.656c-.456.437-1.13.665-1.862.665zm1.216-2.783c-.019-.542-.39-1.216-1.292-1.216-.855 0-1.244.655-1.291 1.216h2.583zm5.634 2.783c-.58 0-1.102-.257-1.473-.75v2.384h-.997v-6.336h.997v.627a1.83 1.83 0 0 1 1.473-.741c1.187 0 2.032.893 2.032 2.403s-.845 2.413-2.032 2.413zm-.295-.884c.789 0 1.292-.636 1.292-1.529 0-.883-.503-1.52-1.292-1.52-.465 0-.96.276-1.178.618v1.814c.219.332.713.617 1.178.617zm6.355.77h-.997v-3.714h-1.31v-.874h3.628v.874h-1.32v3.714zm4.342 0h-.997v-4.588h.997v1.805h2.109v-1.805h.997v4.588h-.997v-1.91h-2.109v1.91zm5.605-4.588h.997v1.662h1.625c1.016 0 1.52.675 1.52 1.463s-.532 1.463-1.52 1.463h-2.622v-4.588zm2.498 2.536h-1.5v1.178h1.5c.4 0 .627-.247.627-.589 0-.342-.228-.589-.627-.589zm3.334 2.052h-.997v-4.588h.997v4.588zm3.458 0h-.959v-4.588h.997v3.087l2.11-3.087h.997v4.588h-.998v-3.173l-2.147 3.173zm2.755-5.908c-.38.512-.978.835-1.662.835a2.096 2.096 0 0 1-1.672-.835l.456-.38c.275.38.693.627 1.216.627.503 0 .93-.238 1.206-.627l.456.38zm7.201 5.908h-1.253l1.947-2.508-1.91-2.08h1.235l1.644 1.795v-1.795h.997v1.795l1.643-1.795h1.235l-1.909 2.08 1.947 2.508h-1.254l-1.405-1.89-.257.265v1.625h-.997V41.56l-.257-.265-1.406 1.89zm7.287 1.795l.152-.893c.104.048.266.076.38.076.313 0 .522-.095.655-.399l.228-.522-1.88-4.645h1.063l1.34 3.438 1.339-3.438h1.073l-2.213 5.414c-.314.78-.865 1.026-1.577 1.036a2.82 2.82 0 0 1-.56-.067zM139.3 43.3c-.58 0-1.102-.257-1.473-.75v2.384h-.997v-6.336h.997v.627a1.83 1.83 0 0 1 1.473-.741c1.187 0 2.032.893 2.032 2.403s-.845 2.413-2.032 2.413zm-.295-.884c.789 0 1.292-.636 1.292-1.529 0-.883-.503-1.52-1.292-1.52-.465 0-.96.276-1.178.618v1.814c.219.332.713.617 1.178.617zm5.52.77h-.998v-4.588h.998v1.805h2.108v-1.805h.998v4.588h-.998v-1.91h-2.108v1.91zm9.404 0h-.997v-.494c-.342.39-.874.608-1.482.608-.75 0-1.596-.504-1.596-1.52 0-1.054.846-1.491 1.596-1.491.617 0 1.15.2 1.482.589v-.684c0-.532-.437-.855-1.074-.855-.513 0-.959.19-1.358.58l-.408-.694c.532-.504 1.196-.741 1.928-.741 1.016 0 1.91.427 1.91 1.662v3.04zm-2.09-.57c.437 0 .865-.162 1.093-.475v-.694c-.228-.313-.656-.474-1.093-.474-.56 0-.978.323-.978.826 0 .494.418.817.978.817zm4.114.684v-.817c.39 0 .608-.447.76-1.653l.275-2.232h3.543v4.588h-.997v-3.714h-1.662l-.162 1.472c-.18 1.662-.75 2.356-1.757 2.356zm12.796 0c-1.453 0-2.356-1.093-2.356-2.413 0-1.31.903-2.403 2.356-2.403 1.472 0 2.365 1.092 2.365 2.403 0 1.32-.893 2.413-2.365 2.413zm0-.884c.855 0 1.33-.712 1.33-1.529 0-.807-.475-1.52-1.33-1.52-.845 0-1.32.713-1.32 1.52 0 .817.475 1.53 1.32 1.53zm10.317.884c-1.396 0-2.375-1.017-2.375-2.413 0-1.387.979-2.403 2.375-2.403.893 0 1.434.38 1.757.817l-.655.608a1.225 1.225 0 0 0-1.054-.542c-.836 0-1.387.627-1.387 1.52s.55 1.53 1.387 1.53c.446 0 .797-.19 1.054-.542l.655.608c-.323.437-.864.817-1.757.817zm5.672-.114h-.998v-3.714h-1.31v-.874h3.628v.874h-1.32v3.714zm5.414.114c-1.453 0-2.355-1.093-2.355-2.413 0-1.31.902-2.403 2.355-2.403 1.473 0 2.366 1.092 2.366 2.403 0 1.32-.893 2.413-2.366 2.413zm0-.884c.855 0 1.33-.712 1.33-1.529 0-.807-.475-1.52-1.33-1.52-.845 0-1.32.713-1.32 1.52 0 .817.475 1.53 1.32 1.53zm9.718.77h-.997v-3.192l-1.368 3.192h-.399l-1.377-3.192v3.192h-.997v-4.588h1.3l1.274 2.963 1.254-2.963h1.31v4.588zm6.299 0h-.998v-.494c-.342.39-.874.608-1.481.608-.75 0-1.596-.504-1.596-1.52 0-1.054.845-1.491 1.596-1.491.617 0 1.149.2 1.481.589v-.684c0-.532-.437-.855-1.073-.855-.513 0-.96.19-1.358.58l-.409-.694c.532-.504 1.197-.741 1.928-.741 1.017 0 1.91.427 1.91 1.662v3.04zm-2.09-.57c.437 0 .864-.162 1.092-.475v-.694c-.228-.313-.655-.474-1.092-.474-.56 0-.978.323-.978.826 0 .494.418.817.978.817zm6.422.57h-.998v-3.714h-1.31v-.874h3.628v.874h-1.32v3.714zm5.415.114c-1.454 0-2.356-1.093-2.356-2.413 0-1.31.902-2.403 2.356-2.403 1.472 0 2.365 1.092 2.365 2.403 0 1.32-.893 2.413-2.365 2.413zm0-.884c.855 0 1.33-.712 1.33-1.529 0-.807-.475-1.52-1.33-1.52-.846 0-1.32.713-1.32 1.52 0 .817.474 1.53 1.32 1.53zm4.104.884v-.817c.39 0 .608-.447.76-1.653l.275-2.232h3.543v4.588h-.997v-3.714h-1.662l-.162 1.472c-.18 1.662-.75 2.356-1.757 2.356zm9.148 0c-1.453 0-2.356-1.093-2.356-2.413 0-1.31.903-2.403 2.356-2.403 1.472 0 2.365 1.092 2.365 2.403 0 1.32-.893 2.413-2.365 2.413zm0-.884c.855 0 1.33-.712 1.33-1.529 0-.807-.475-1.52-1.33-1.52-.846 0-1.32.713-1.32 1.52 0 .817.474 1.53 1.32 1.53zm8.055-3.818v.874h-2.479v3.714h-.997v-4.588h3.476zm2.984 4.588h-.96v-4.588h.998v3.087l2.108-3.087h.998v4.588h-.998v-3.173l-2.146 3.173zm6.602 0h-.96v-4.588h.998v3.087l2.109-3.087h.997v4.588h-.997v-3.173l-2.147 3.173z" opacity=".5"/><path fill="#FF9F00" d="M209.473 5.942c-1.38 0-2.557-1.113-2.557-2.488 0-1.374 1.177-2.454 2.557-2.454 1.413 0 2.557 1.08 2.557 2.454 0 1.375-1.144 2.488-2.557 2.488z"/><path fill="#FFF" d="M10.275 14.908c-.096 0-.191-.013-.287-.037A1.14 1.14 0 0 1 9.2 13.48c.472-1.81 2.083-3.071 3.916-3.071 1.833 0 3.445 1.262 3.918 3.07a1.142 1.142 0 0 1-.788 1.392 1.114 1.114 0 0 1-1.361-.805 1.838 1.838 0 0 0-1.769-1.384 1.84 1.84 0 0 0-1.768 1.384 1.114 1.114 0 0 1-1.073.842M20.61 33.317a12.267 12.267 0 0 1-10.407-5.726 1.333 1.333 0 1 1 2.25-1.427 9.616 9.616 0 0 0 8.156 4.487 9.616 9.616 0 0 0 8.158-4.487 1.332 1.332 0 1 1 2.25 1.427 12.273 12.273 0 0 1-10.408 5.726m10.199-19.839c0 1.693-1.118 3.067-2.498 3.067-1.379 0-2.497-1.374-2.497-3.067 0-1.695 1.118-3.07 2.497-3.07 1.38 0 2.498 1.375 2.498 3.07"/></g></svg>