<svg width="36" height="36" viewBox="0 0 36 36" fill="none" xmlns="http://www.w3.org/2000/svg">
<path d="M17.8484 29.5768L7.23321 35.337C7.17915 35.3662 7.11823 35.3793 7.05735 35.3746C6.99648 35.37 6.93808 35.3478 6.88878 35.3107C6.83947 35.2735 6.80124 35.2228 6.77839 35.1644C6.75555 35.106 6.74902 35.0421 6.75953 34.98L8.78689 22.7556C8.79568 22.7009 8.79167 22.6449 8.77519 22.5922C8.75871 22.5394 8.73024 22.4915 8.69215 22.4524L0.0995651 13.8367C0.0553888 13.7925 0.0241625 13.7365 0.00947136 13.6748C-0.00521974 13.6132 -0.00278011 13.5486 0.0165103 13.4883C0.0358008 13.4281 0.0711601 13.3747 0.118528 13.3342C0.165896 13.2938 0.223353 13.2679 0.284301 13.2597L12.1263 11.4798C12.1787 11.4711 12.2283 11.4497 12.2711 11.4174C12.3139 11.3851 12.3487 11.3428 12.3727 11.294L17.7063 0.189322C17.7332 0.132541 17.775 0.08469 17.8269 0.0512183C17.8788 0.0177467 17.9388 0 18 0C18.0612 0 18.1212 0.0177467 18.1731 0.0512183C18.225 0.08469 18.2668 0.132541 18.2937 0.189322L23.6037 11.294C23.6276 11.3428 23.6624 11.3851 23.7052 11.4174C23.748 11.4497 23.7976 11.4711 23.85 11.4798L35.7157 13.2597C35.7766 13.2679 35.8341 13.2938 35.8815 13.3342C35.9288 13.3747 35.9642 13.4281 35.9835 13.4883C36.0028 13.5486 36.0052 13.6132 35.9905 13.6748C35.9758 13.7365 35.9446 13.7925 35.9004 13.8367L27.3126 22.4769C27.2745 22.516 27.246 22.5639 27.2295 22.6166C27.2131 22.6693 27.2091 22.7254 27.2178 22.7801L29.2452 35.0045C29.2557 35.0666 29.2492 35.1304 29.2263 35.1889C29.2035 35.2473 29.1653 35.298 29.116 35.3351C29.0667 35.3723 29.0083 35.3944 28.9474 35.3991C28.8865 35.4037 28.8256 35.3907 28.7715 35.3614L18.1516 29.5768C18.1045 29.5527 18.0526 29.5402 18 29.5402C17.9474 29.5402 17.8955 29.5527 17.8484 29.5768Z" fill="#F7C70A"/>
</svg>
